# Blender v2.79 (sub 0) OBJ File: 'LongBox.blend'
# www.blender.org
mtllib LongBoxHorizontal.mtl
o Cube
v -6.207614 -0.235886 -1.726686
v 6.207614 -0.235886 -1.726686
v 6.207613 -0.235886 1.726686
v -6.207617 -0.235886 1.726686
v -6.207611 0.235886 -1.726687
v 6.207618 0.235886 -1.726685
v 6.207612 0.235886 1.726686
v -6.207614 0.235886 1.726686
vn 0.0000 -1.0000 0.0000
vn 0.0000 1.0000 0.0000
vn 0.0000 0.0000 -1.0000
vn 1.0000 -0.0000 0.0000
vn -0.0000 -0.0000 1.0000
vn -1.0000 0.0000 -0.0000
usemtl Material
s off
f 1//1 2//1 3//1 4//1
f 5//2 8//2 7//2 6//2
f 1//3 5//3 6//3 2//3
f 2//4 6//4 7//4 3//4
f 3//5 7//5 8//5 4//5
f 5//6 1//6 4//6 8//6
