# Blender v2.79 (sub 0) OBJ File: 'LowPolyBox.blend'
# www.blender.org
mtllib LowPolyBox.mtl
o Cube
v 0.677847 -0.677848 -0.677848
v 0.677847 -0.677848 0.677848
v -0.677847 -0.677848 0.677848
v -0.677847 -0.677848 -0.677848
v 0.677847 0.677848 -0.677847
v 0.677847 0.677848 0.677848
v -0.677847 0.677848 0.677848
v -0.677847 0.677848 -0.677848
v 0.617465 1.032788 1.032789
v -1.032787 -0.617465 1.032788
v -1.032787 1.032788 -0.617465
v 0.617464 1.032788 -1.032788
v -1.032788 1.032789 0.617466
v -1.032787 -0.617465 -1.032789
v 1.032787 1.032788 -0.617465
v 1.032787 -0.617465 1.032788
v -0.617465 1.032788 1.032788
v -1.032787 -1.032788 -0.617466
v -1.032788 0.617465 1.032788
v 0.617464 -1.032788 1.032788
v 1.032787 1.032788 0.617465
v -0.617465 1.032788 -1.032789
v 1.032788 -0.617465 -1.032788
v -1.032787 -1.032788 0.617465
v 0.617466 -1.032788 -1.032789
v -1.032787 0.617465 -1.032789
v -0.617464 -1.032788 -1.032788
v 1.032787 -1.032789 0.617466
v 1.032788 0.617465 -1.032788
v -0.617465 -1.032788 1.032788
v 1.032787 0.617465 1.032789
v 1.032788 -1.032788 -0.617465
vn 0.0000 1.0000 -0.0000
vn 0.0000 -1.0000 -0.0000
vn -1.0000 -0.0000 -0.0000
vn 0.0000 0.0000 -1.0000
vn 1.0000 0.0000 0.0000
vn -0.0000 -0.0000 1.0000
vn 0.5774 -0.5774 -0.5774
vn 0.5774 -0.5774 0.5774
vn -0.5774 -0.5774 -0.5774
vn 0.5774 0.5774 -0.5773
vn -0.5774 -0.5774 0.5773
vn 0.5774 0.5774 0.5774
vn -0.5774 0.5774 0.5773
vn -0.5774 0.5774 -0.5774
vn -0.7071 0.7071 0.0000
vn -0.0000 0.7071 0.7071
vn -0.7071 0.0000 0.7071
vn 0.0000 0.7071 -0.7071
vn -0.7071 -0.0000 -0.7071
vn 0.7071 0.7071 0.0000
vn 0.7071 -0.0000 -0.7071
vn 0.7071 0.0000 0.7071
vn -0.7071 -0.7071 -0.0000
vn -0.0000 -0.7071 0.7071
vn 0.0000 -0.7071 -0.7071
vn 0.7071 -0.7071 0.0000
usemtl Material
s off
f 1//1 4//1 3//1 2//1
f 5//2 6//2 7//2 8//2
f 1//3 2//3 6//3 5//3
f 2//4 3//4 7//4 6//4
f 3//5 4//5 8//5 7//5
f 5//6 8//6 4//6 1//6
f 18//4 11//4 15//4 32//4
f 10//2 14//2 23//2 16//2
f 22//3 27//3 30//3 17//3
f 19//1 31//1 29//1 26//1
f 13//6 24//6 28//6 21//6
f 9//7 10//7 11//7
f 12//8 13//8 14//8
f 15//9 16//9 17//9
f 18//10 19//10 20//10
f 21//11 22//11 23//11
f 24//12 25//12 26//12
f 27//13 28//13 29//13
f 30//14 31//14 32//14
f 9//15 12//15 14//15 10//15
f 10//16 16//16 15//16 11//16
f 11//17 18//17 20//17 9//17
f 13//18 21//18 23//18 14//18
f 12//19 25//19 24//19 13//19
f 22//20 17//20 16//20 23//20
f 21//21 28//21 27//21 22//21
f 17//22 30//22 32//22 15//22
f 19//23 26//23 25//23 20//23
f 18//24 32//24 31//24 19//24
f 26//25 29//25 28//25 24//25
f 29//26 31//26 30//26 27//26
f 9//5 20//5 25//5 12//5
